<?xml version="1.0" encoding="utf-8"?>
<!-- Generator: Adobe Illustrator 25.0.1, SVG Export Plug-In . SVG Version: 6.00 Build 0)  -->
<svg version="1.1" id="Layer_1" xmlns="http://www.w3.org/2000/svg" xmlns:xlink="http://www.w3.org/1999/xlink" x="0px" y="0px"
	 viewBox="0 0 57 57" style="enable-background:new 0 0 57 57;" xml:space="preserve">
<style type="text/css">
	.st0{fill:#EA565A;}
	.st1{fill:#FFFFFF;}
</style>
<g>
	<path id="Path_27" class="st0" d="M45.4,15.2c6.4,7.9,11.7,17.3,9.4,23.5c-2.3,6.3-12.3,9.4-20.9,12.7c-8.6,3.3-15.9,6.7-20.9,4.4
		C8,53.5,5.4,45.6,3.5,37.4S0.4,20.6,4,13.4S15.7,0.2,23.6,0.5S39,7.3,45.4,15.2z"/>
	<g id="Group_251" transform="translate(-157 -319)">
		<g id="Group_228" transform="translate(202 387)">
			<g id="Group_227" transform="translate(0 0)">
				<path id="Path_262" class="st1" d="M-15-45v0.8h9.1v10.9h-20.3v-6.8H-27v7.2c0,0.2,0.2,0.4,0.4,0.4h21.1c0.2,0,0.4-0.2,0.4-0.4
					v-11.7l0,0c0-0.2-0.2-0.4-0.4-0.4L-15-45L-15-45z"/>
				<path id="Path_263" class="st1" d="M-15-46.6v0.8h10.1c0.3,0,0.6,0.3,0.6,0.6c0,0,0,0,0,0v13c0,0.3-0.3,0.6-0.6,0.6c0,0,0,0,0,0
					h-22.2c-0.3,0-0.6-0.3-0.6-0.6c0,0,0,0,0,0v-7.9h-0.8v7.9c0,0.8,0.6,1.4,1.4,1.4h22.2c0.8,0,1.4-0.6,1.4-1.4v-13
					c0-0.8-0.6-1.4-1.4-1.4L-15-46.6L-15-46.6z"/>
				<path id="Path_264" class="st1" d="M-31-31.6c-0.2,0-0.4,0.2-0.4,0.4c0,0,0,0,0,0v1.4c0,0.2,0.2,0.4,0.4,0.4c0,0,0,0,0,0h30
					c0.2,0,0.4-0.2,0.4-0.4v-1.4c0-0.2-0.2-0.4-0.4-0.4c0,0,0,0,0,0L-31-31.6z M-30.6-30.8h29.2v0.6h-29.2V-30.8z"/>
				<path id="Path_265" class="st1" d="M-31-30.2c-0.2,0-0.4,0.2-0.4,0.4c0,0.1,0.1,0.3,0.2,0.3l1.4,1c0.1,0.1,0.2,0.1,0.2,0.1h27.3
					c0.1,0,0.2,0,0.2-0.1l1.3-1l-0.5-0.7l-1.2,0.9h-27l-1.3-0.9C-30.8-30.1-30.9-30.2-31-30.2z"/>
				<path id="Path_266" class="st1" d="M-30-50.6c-1.2,0-2.1,0.9-2.1,2.1v6.7c0,1.2,0.9,2.1,2.1,2.1h9.2l2.9,3.3
					c0.1,0.2,0.4,0.2,0.6,0c0.1-0.1,0.1-0.2,0.1-0.3v-3h0.6c1.2,0,2.1-0.9,2.1-2.1v-6.7c0-1.2-0.9-2.1-2.1-2.1H-30z M-30-49.8h13.4
					c0.7,0,1.3,0.6,1.3,1.3c0,0,0,0,0,0v6.7c0,0.7-0.6,1.3-1.3,1.3c0,0,0,0,0,0h-1c-0.2,0-0.4,0.2-0.4,0.4l0,0v2.4l-2.3-2.6
					c-0.1-0.1-0.2-0.1-0.3-0.1H-30c-0.7,0-1.3-0.6-1.3-1.3c0,0,0,0,0,0v-6.7C-31.3-49.2-30.8-49.8-30-49.8
					C-30.1-49.8-30.1-49.8-30-49.8L-30-49.8z"/>
			</g>
		</g>
	</g>
</g>
</svg>
