<?xml version="1.0" encoding="UTF-8"?><svg xmlns="http://www.w3.org/2000/svg" xmlns:xlink="http://www.w3.org/1999/xlink" height="424.2" preserveAspectRatio="xMidYMid meet" version="1.0" viewBox="-0.1 -0.1 421.7 424.2" width="421.7" zoomAndPan="magnify"><g><g fill="#EAEAEA" id="change1_2"><path d="M274.312,323.895c-0.02-3.155-0.29-6.329-0.771-9.506h20.197c2.847,0,5.155-2.308,5.155-5.155v-24.286 c-1.543,0.64-3.227,1.007-5.001,1.007c-7.235,0-13.1-5.865-13.1-13.1s5.865-13.1,13.1-13.1c1.774,0,3.458,0.367,5.001,1.007 v-23.094c0-2.847-2.308-5.155-5.155-5.155h-24.733c0.985-1.839,1.546-3.94,1.546-6.172c0-7.235-5.865-13.1-13.1-13.1 c-7.235,0-13.1,5.865-13.1,13.1c0,2.232,0.562,4.333,1.547,6.172h-23.726c-2.847,0-5.155,2.308-5.155,5.155v31.322 c-2.289-0.436-4.609-0.748-6.957-0.889l-4.029-11.475c-2.611,0.017-5.236,0.207-7.865,0.541v-36.572 c0-2.847-2.308-5.155-5.155-5.155h-24.733c0.985-1.839,1.546-3.94,1.546-6.172c0-7.235-5.865-13.1-13.1-13.1 s-13.1,5.865-13.1,13.1c0,2.232,0.562,4.333,1.546,6.172h-23.726c-2.847,0-5.155,2.308-5.155,5.155v71.567 c0,2.847,2.308,5.155,5.155,5.155h23.005c-0.589,1.349-1.148,2.711-1.648,4.096l9.468,7.607 c-1.101,3.848-1.789,7.817-2.032,11.859l-11.475,4.029c0.024,3.801,0.392,7.629,1.082,11.458l11.991,1.84 c0.49,1.938,1.079,3.851,1.788,5.768c0.705,1.906,1.503,3.742,2.391,5.533l-7.909,9.199c1.967,3.356,4.179,6.503,6.633,9.405 l11.336-4.406c2.815,2.912,5.919,5.479,9.262,7.695l-2.245,11.926c3.344,1.895,6.844,3.505,10.458,4.812l7.596-9.464 c3.859,1.097,7.827,1.785,11.87,2.028l4.029,11.475c3.801-0.024,7.629-0.392,11.458-1.082l1.84-11.991 c1.938-0.49,3.851-1.079,5.757-1.784c1.917-0.709,3.753-1.506,5.543-2.395l9.199,7.909c3.356-1.967,6.503-4.178,9.405-6.633 l-4.406-11.336c2.912-2.815,5.478-5.919,7.684-9.259l11.937,2.241c1.895-3.344,3.505-6.844,4.812-10.458l-9.464-7.596 c1.087-3.855,1.784-7.827,2.028-11.87L274.312,323.895z M216.649,351.765c-15.103,5.584-31.888-2.138-37.472-17.241 c-5.588-15.113,2.134-31.899,17.237-37.483c6.93-2.563,14.209-2.319,20.602,0.145v12.048c0,2.847,2.308,5.155,5.155,5.155h11.764 C239.448,329.466,231.729,346.189,216.649,351.765z" fill="inherit"/><path d="M421.564,256.182c0-0.01,0.005-0.021,0.005-0.031c-0.03-0.738-0.209-2.688-0.452-5.123l-0.001-0.002 c-0.641-6.417-1.729-16.215-1.729-16.219c0,0,0,0,0,0l-4.391-39.305l1.694-0.339c-1.897-18.78-2.481-40.991-2.814-45.385 c-0.448-5.185-0.882-10.37-1.529-15.542c-0.609-4.873-3.719-8.812-7.875-10.724c0.006-0.037,0.009-0.062,0.009-0.062 c-9.63-4.158-19.041-6.91-28.367-8.25l0.155,2.06l-1.337-17.732l0.038,0.498c2.644-0.464,13.059-2.903,11.879-12.366 c0,0,8.201-9.414,0.061-16.747c0.092-8.509-4.497-12.641-13.048-13.054c0,0-15.527-1.321-21.839-1.783 c0.589-1.749,1.058-3.544,1.376-5.38l7.75-1.785c0.26-2.472,0.299-4.987,0.129-7.525l-7.659-2.067 c-0.178-1.295-0.421-2.581-0.741-3.871c-0.321-1.297-0.707-2.548-1.154-3.776l5.808-5.404c-1.035-2.324-2.243-4.53-3.627-6.594 l-7.687,2.04c-1.618-2.097-3.456-3.989-5.459-5.667l2.324-7.595c-2.035-1.474-4.193-2.775-6.447-3.887l-5.631,5.6 c-2.419-0.988-4.95-1.73-7.56-2.182l-1.785-7.75c-2.472-0.26-4.987-0.299-7.525-0.129l-2.067,7.659 c-1.295,0.178-2.581,0.421-3.878,0.743c-1.29,0.32-2.541,0.705-3.77,1.152l-5.403-5.808c-2.324,1.034-4.53,2.243-6.594,3.627 l2.04,7.687c-2.097,1.618-3.989,3.456-5.674,5.46l-7.587-2.325c-1.475,2.035-2.776,4.193-3.887,6.447l5.601,5.631 c-0.995,2.421-1.73,4.95-2.182,7.559l-7.75,1.785c-0.26,2.472-0.299,4.987-0.129,7.525l7.659,2.067 c0.178,1.295,0.421,2.581,0.742,3.879c0.32,1.29,0.705,2.541,1.152,3.769l-2.579,2.399h-10.624 c0.963,1.811,1.514,3.875,1.514,6.07c0,7.154-5.799,12.954-12.954,12.954c-7.154,0-12.954-5.8-12.954-12.954 c0-2.194,0.551-4.258,1.514-6.07h-26.113c-2.829,0-5.122,2.293-5.122,5.123v23.606c1.863-0.737,3.932-1.067,6.108-0.831 c6.285,0.682,11.237,5.997,11.46,12.315c0.259,7.313-5.593,13.323-12.848,13.323c-1.668,0-3.258-0.328-4.72-0.907v23.606 c0,2.829,2.293,5.123,5.122,5.123h9.343c-0.078,0.944,0.58,1.815,2.07,2.037c0.499,0.074,1.121,0.145,1.827,0.212 c-0.525,1.055-0.14,2.162,1.394,2.337c0.665,0.077,1.665,0.185,2.849,0.311c0.287,0.397,0.725,0.733,1.339,0.918 c2.704,0.815,7.88,1.961,9.87,2.394c0.534,0.115,1.071,0.194,1.616,0.238c0,0,10.401,0.868,11.96,0.948l0.033,0.003v-0.001 c0.357,0.018,0.72,0.026,1.085,0.032l22.146,40.076c3.761,6.179,11.818,8.14,17.998,4.38c1.058-0.644,5.502-5.194,10.025-9.955 l4.66,6.531l7.649-17.267l0.199,2.139c0.024,0.259,0.242,0.453,0.497,0.453c0.016,0,0.031-0.001,0.048-0.002 c0.026-0.002,0.047-0.015,0.072-0.022c0.392,5.292,0.636,9.715,0.636,12.436c0,10.19-1.546,28.14-1.546,35.598 c0,1.282,0.61,2.43,1.567,3.171l-0.301,8.192c0.033-0.006,0.063-0.02,0.097-0.02c-0.329,0-0.596,0.267-0.596,0.596 s0.267,0.596,0.596,0.596c-0.05,0-0.094-0.017-0.139-0.028l-2.646,72.004l-3.459,81.196h0.536 c-0.393,4.932-1.114,8.259-2.213,11.035c5.395,7.119,12.455,6.562,17.158,4.697c-4.703,1.865-11.764,2.422-17.159-4.698 c-3.518,4.395-12.732,9.993-19.875,13.462l3.102,4.844h37.221c0.091-3.828-0.131-9.42-1.718-14.306 c-0.024-4.61,0.621-10.79,1.147-15.034h2.034c4.404-14.616,14.63-50.658,9.639-76.551l10.91-73.929l-6.494-0.41l9.196,0.58 c0.013,0.001,0.025,0.001,0.038,0.001c0.006,0,0.012-0.003,0.018-0.003c0,0-0.001,0-0.001,0l4.59,150.311h1.132 c-0.008,0.316-0.024,0.619-0.024,0.947c0,5.765-0.337,10.175-0.618,16.318h0c-0.021,0.46-0.041,0.932-0.061,1.413 c-0.007,0.179-0.015,0.366-0.022,0.548c-0.011,0.272-0.022,0.544-0.032,0.824c-0.011,0.297-0.022,0.602-0.033,0.908 c-0.006,0.176-0.012,0.352-0.018,0.531c-0.012,0.365-0.024,0.737-0.036,1.115c-0.003,0.107-0.006,0.217-0.01,0.325 c-0.078,2.676-0.135,5.683-0.15,9.195c-0.005,0.995,0.8,1.809,1.795,1.809h31.524c1.097,0,1.957-0.981,1.779-2.064 c-0.667-4.082-3.29-6.953-6.282-9.68c0.001,0,0.003,0.001,0.005,0.001c-0.107-0.098-0.218-0.194-0.326-0.291 c-0.902-0.813-1.826-1.62-2.742-2.442c-0.213-0.191-0.425-0.385-0.636-0.579c-0.225-0.207-0.448-0.416-0.671-0.626 c-0.226-0.214-0.447-0.432-0.667-0.651c-0.201-0.199-0.401-0.4-0.596-0.603c-0.225-0.234-0.442-0.476-0.658-0.717 c-0.179-0.199-0.359-0.398-0.531-0.603c-0.22-0.263-0.427-0.536-0.635-0.809c-0.151-0.197-0.306-0.391-0.449-0.594 c-0.22-0.313-0.42-0.642-0.62-0.97c-0.11-0.179-0.229-0.351-0.332-0.535c-0.287-0.514-0.549-1.046-0.779-1.602 c-0.003-0.008-0.008-0.015-0.011-0.023c-0.095-0.229-0.172-0.461-0.257-0.692c0,0,0,0,0,0c-1.273-3.46-1.48-6.95-1.355-10.454 h2.51c1.69-10.065,4.878-29.377,6.408-40.841c2.136-16.025-1.028-39.577-1.028-39.577l1.428-72.755 c0.004,0,0.008,0.001,0.011,0.001c0.329,0,0.596-0.267,0.596-0.596c0-0.325-0.26-0.586-0.584-0.593l0.156-7.977c0,0,0,0,0,0 c1.094-0.728,1.808-1.953,1.808-3.338c0-3.375-0.318-8.923-0.666-14.929c2.92,10.436,6.332,22.599,7.559,26.969l-0.011,0.003 c-0.264,0.081-0.412,0.36-0.332,0.625c0.035,0.114,0.11,0.201,0.201,0.263c-0.09,0.142-0.193,0.287-0.269,0.427 c-1.939,3.577-2.312,5.992-1.752,11.125c-0.178,0.106-0.274,0.307-0.233,0.516c-0.094-0.026-0.183-0.066-0.282-0.078 c-1.334-0.162-2.495,0.908-2.44,2.25l0.284,7.008c0.026,0.652,0.343,1.257,0.863,1.65l4.91,3.712 c0.274,0.478,0.601,0.903,1.02,1.231c0.321,0.252,0.715,0.384,1.115,0.384c0.008,0,0.017-0.004,0.025-0.004 c0.768,0.524,1.785,0.518,2.533-0.048l9.967-7.522c0.571-0.43,0.894-1.113,0.865-1.827L421.564,256.182z M371.093,407.772 c0.098,0.004,0.196,0.007,0.296,0.003C371.288,407.778,371.19,407.776,371.093,407.772z M374.434,406.427 c0.23-0.198,0.462-0.414,0.697-0.665c0.299-0.319,0.6-0.623,0.902-0.918c-0.302,0.295-0.603,0.598-0.901,0.917 C374.897,406.013,374.665,406.228,374.434,406.427z M371.667,407.753c0.112-0.012,0.226-0.031,0.341-0.054 C371.893,407.721,371.779,407.741,371.667,407.753z M372.263,407.645c0.196-0.052,0.395-0.117,0.597-0.203 C372.658,407.528,372.459,407.593,372.263,407.645z M373.01,407.367c0.167-0.078,0.336-0.166,0.508-0.27 C373.347,407.201,373.178,407.29,373.01,407.367z M373.743,406.951c0.158-0.106,0.319-0.224,0.48-0.354 C374.062,406.727,373.902,406.846,373.743,406.951z M384.928,400.216c-0.561,0.029-1.122,0.109-1.68,0.24 c-0.319,0.074-0.637,0.169-0.954,0.276c1.425-0.477,2.863-0.643,4.303-0.447C386.041,400.21,385.484,400.187,384.928,400.216z M376.308,404.584c0.214-0.203,0.429-0.4,0.644-0.59C376.737,404.184,376.522,404.381,376.308,404.584z M377.268,403.72 c0.215-0.183,0.431-0.358,0.647-0.527C377.698,403.362,377.483,403.537,377.268,403.72z M378.199,402.969 c0.617-0.466,1.238-0.877,1.863-1.231C379.438,402.092,378.816,402.503,378.199,402.969z M380.346,401.586 c0.222-0.119,0.445-0.233,0.668-0.337C380.792,401.353,380.569,401.466,380.346,401.586z M381.335,401.104 c0.225-0.098,0.45-0.186,0.675-0.268C381.785,400.918,381.56,401.006,381.335,401.104z M387.432,400.439 c-0.25-0.058-0.501-0.102-0.751-0.138C386.931,400.337,387.181,400.38,387.432,400.439z M388.418,229.467 c-0.333,0.043-0.664,0.09-0.998,0.133c0,0,0,0,0,0c0.826-0.103,1.645-0.215,2.462-0.329c-0.487,0.068-0.972,0.137-1.462,0.201 C388.419,229.471,388.418,229.469,388.418,229.467z M391.161,229.097c1.239-0.181,2.469-0.373,3.685-0.58 C393.63,228.723,392.4,228.915,391.161,229.097z M385.839,229.785c-0.732,0.084-1.464,0.168-2.201,0.244 C384.375,229.952,385.107,229.869,385.839,229.785z M381.875,230.199c-0.68,0.064-1.362,0.125-2.046,0.182 C380.513,230.324,381.194,230.263,381.875,230.199z M377.922,230.529c-0.638,0.047-1.278,0.09-1.919,0.13 C376.645,230.619,377.284,230.576,377.922,230.529z M373.959,230.781c-0.584,0.031-1.169,0.057-1.755,0.083 C372.789,230.839,373.375,230.813,373.959,230.781z M312.475,25.799c10.228-2.534,20.575,3.705,23.109,13.932 c2.532,10.221-3.706,20.568-13.934,23.102c-10.221,2.532-20.568-3.706-23.1-13.927C296.016,38.678,302.254,28.331,312.475,25.799z M324.662,122.339c-0.015,0.006-0.028,0.015-0.043,0.021c-3.255,1.129-6.063,3.52-7.62,6.909l-18.967,33.328l12.386,17.357 l-11.484-16.094l-0.906,0.913l-18.537-24.056h11.834c2.829,0,5.123-2.293,5.123-5.123V83.522c0.348,0.183,0.695,0.37,1.048,0.545 l5.624-5.599c2.428,0.993,4.957,1.729,7.567,2.18l1.785,7.75c2.472,0.26,4.987,0.299,7.525,0.129l2.067-7.659 c1.295-0.178,2.581-0.422,3.871-0.741c1.297-0.321,2.548-0.706,3.776-1.154l5.404,5.808c2.324-1.035,4.53-2.243,6.594-3.627 l-2.04-7.687c2.097-1.618,3.99-3.449,5.667-5.459l0.376,0.115c0.104,0.37,0.244,0.699,0.409,1 c-1.097,2.172-1.812,4.581-2.023,7.155c-0.276,3.353,0.317,6.576,1.59,9.449c-0.024,0.522-0.028,0.816-0.028,0.816l0.184,10.748 c0.083,4.864,2.495,9.253,6.191,11.926l-0.051,5.7C342.948,116.023,333.882,118.489,324.662,122.339z M348.323,70.837 c-0.148,0.46-0.286,0.919-0.419,1.376C348.037,71.756,348.175,71.297,348.323,70.837z M347.785,72.64 c-0.089,0.317-0.175,0.632-0.256,0.946C347.61,73.272,347.696,72.957,347.785,72.64z M347.408,74.058 c-0.077,0.309-0.151,0.615-0.221,0.919C347.258,74.673,347.331,74.367,347.408,74.058z M347.09,75.397 c-0.087,0.389-0.169,0.774-0.246,1.153C346.921,76.171,347.003,75.786,347.09,75.397z M346.816,76.683 c-0.086,0.427-0.164,0.846-0.237,1.257C346.652,77.529,346.73,77.11,346.816,76.683z M346.521,78.28 c-0.051,0.294-0.099,0.585-0.144,0.869C346.421,78.864,346.47,78.574,346.521,78.28z M346.315,79.543 c-0.04,0.266-0.078,0.526-0.114,0.781C346.237,80.069,346.275,79.809,346.315,79.543z M346.153,80.676 c-0.04,0.302-0.077,0.595-0.111,0.879C346.075,81.271,346.113,80.978,346.153,80.676z M346.022,81.717 c-0.04,0.337-0.074,0.659-0.106,0.968C345.948,82.376,345.982,82.054,346.022,81.717z M345.892,82.939 c-0.021,0.214-0.04,0.422-0.058,0.62C345.851,83.361,345.871,83.153,345.892,82.939z M345.808,83.868 c-0.013,0.164-0.026,0.322-0.037,0.472C345.782,84.189,345.795,84.033,345.808,83.868z M345.75,84.632 c-0.009,0.136-0.017,0.262-0.025,0.385C345.733,84.893,345.741,84.768,345.75,84.632z M345.71,85.268 c-0.004,0.073-0.007,0.131-0.01,0.198C345.704,85.399,345.706,85.34,345.71,85.268z M336.436,229.487 c-0.054-0.007-0.107-0.014-0.161-0.021c0.03,0.004,0.059,0.008,0.089,0.011C336.388,229.481,336.412,229.484,336.436,229.487z M328.548,228.249c-0.111-0.044-0.219-0.094-0.325-0.148C328.329,228.154,328.436,228.206,328.548,228.249z M329.386,228.489 c-0.212-0.034-0.415-0.091-0.613-0.156C328.972,228.398,329.175,228.455,329.386,228.489z M339.691,229.861 c0.117,0.012,0.233,0.026,0.35,0.038C339.924,229.886,339.808,229.873,339.691,229.861z M350.872,230.762 c0.148,0.008,0.297,0.014,0.445,0.022C351.168,230.777,351.02,230.77,350.872,230.762z M343.321,230.218 c0.17,0.015,0.34,0.03,0.51,0.045C343.661,230.249,343.491,230.234,343.321,230.218z M347.066,230.522 c0.18,0.013,0.361,0.025,0.542,0.037C347.427,230.546,347.247,230.535,347.066,230.522z M365.036,239.745 c0.01-0.009,0.014-0.022,0.023-0.032C365.051,239.723,365.046,239.736,365.036,239.745z M365.162,239.572 c0.031-0.067,0.052-0.14,0.056-0.218C365.214,239.432,365.194,239.506,365.162,239.572z M368.521,230.997 c0.486-0.013,0.973-0.024,1.459-0.04C369.494,230.973,369.007,230.984,368.521,230.997z M365.415,231.062 c0.19-0.002,0.381-0.002,0.571-0.005C365.796,231.061,365.605,231.06,365.415,231.062z M387.447,230.22 c-0.085-0.201-0.165-0.399-0.239-0.591C387.282,229.821,387.362,230.019,387.447,230.22z M389.199,233.329 c-0.001-0.002-0.003-0.004-0.004-0.006C389.196,233.325,389.197,233.327,389.199,233.329z M388.03,231.457 c-0.01-0.02-0.019-0.039-0.029-0.058C388.011,231.419,388.02,231.438,388.03,231.457z M395.655,228.283 c0.02-0.008,0.037-0.018,0.057-0.026C395.693,228.265,395.675,228.275,395.655,228.283z M397.258,204.444 c0.042,0.757,0.085,1.513,0.128,2.268C397.343,205.957,397.3,205.201,397.258,204.444z M396.978,199.105 c0.037,0.767,0.076,1.546,0.117,2.327C397.055,200.65,397.015,199.872,396.978,199.105z M397.13,202.097 c0.035,0.668,0.072,1.337,0.109,2.008C397.202,203.434,397.166,202.765,397.13,202.097z M397.451,207.854 c0.015,0.26,0.03,0.519,0.045,0.777C397.481,208.373,397.466,208.114,397.451,207.854z" fill="inherit"/><path d="M290.888,422.127c-0.143,1.074,0.699,2.028,1.784,2.028h45.272c0.94,0,1.722-0.722,1.79-1.659 c0.057-0.767,0.112-1.773,0.139-2.935h-37.221l-3.102-4.844c-1.086,0.527-2.125,1.007-3.088,1.424 C292.229,417.975,291.16,420.09,290.888,422.127z" fill="inherit"/><path d="M115.411,184.855c0,2.815,2.282,5.098,5.098,5.098h22.531c-0.606-1.507-0.947-3.147-0.947-4.87 c0-7.235,5.865-13.1,13.1-13.1s13.1,5.865,13.1,13.1c0,1.723-0.341,3.364-0.947,4.87h23.928c2.815,0,5.097-2.282,5.097-5.098 v-24.456c1.819,0.974,3.896,1.529,6.103,1.529c7.154,0,12.954-5.8,12.954-12.954c0-7.154-5.799-12.954-12.954-12.954 c-2.207,0-4.284,0.555-6.103,1.529v-23.46c0-2.815-2.282-5.098-5.097-5.098h-45.506c0.028-0.128,0.059-0.264,0.086-0.391 l1.89-3.407c0.557-1.219-0.091-2.65-1.374-3.039c-0.884-0.268-1.769,0.056-2.327,0.722c-0.083-1.01-0.792-1.917-1.853-2.177 c-1.205-0.294-2.359,0.378-2.833,1.485c0.05-1.288-0.913-2.436-2.25-2.552c-1.393-0.121-2.546,0.947-2.683,2.339 c-0.009,0.09-0.018,0.209-0.026,0.341l-1.604-0.143c-0.403-1.093-1.539-1.802-2.754-1.578c-0.738,0.136-1.311,0.588-1.654,1.187 l-0.284-0.025c0,0-0.457,2.685-1.036,6.876c-0.461-0.857-1.031-1.96-1.585-3.14c-0.675-1.437-1.435-2.463-2.18-3.169 c0.599-1.062,1.179-2.135,1.719-3.229l-4.738-4.76c0.933-4.793,2.114-9.034,2.561-15.527l8.619-1.985 c0.387-3.676,0.445-7.416,0.192-11.191l-11.39-3.074c-0.265-1.926-0.626-3.839-1.102-5.757c-0.478-1.929-1.051-3.79-1.716-5.616 l8.638-8.036c-1.539-3.456-3.336-6.737-5.394-9.807l-11.432,3.033c-2.406-3.118-5.139-5.932-8.118-8.427l3.456-11.294 c-3.027-2.193-6.236-4.127-9.588-5.781l-8.375,8.329c-3.597-1.469-7.361-2.573-11.242-3.245L72.737,4.431 c-3.676-0.387-7.416-0.445-11.191-0.192l-3.074,11.39c-1.926,0.265-3.839,0.627-5.768,1.105c-1.918,0.475-3.779,1.048-5.606,1.713 l-8.036-8.637c-3.456,1.538-6.737,3.336-9.807,5.394l3.034,11.432c-3.118,2.406-5.932,5.139-8.438,8.121l-11.284-3.458 c-2.193,3.027-4.128,6.236-5.781,9.588l8.329,8.375c-1.48,3.6-2.573,7.361-3.245,11.242L0.345,63.156 c-0.387,3.676-0.445,7.416-0.192,11.191l11.39,3.074c0.264,1.926,0.626,3.839,1.104,5.768c0.476,1.918,1.048,3.779,1.713,5.606 l-8.638,8.036c1.539,3.456,3.336,6.736,5.394,9.807l11.432-3.033c2.406,3.118,5.129,5.935,8.121,8.438l-3.458,11.284 c1.98,1.434,4.045,2.746,6.17,3.953c-9.087,16.489-12.767,38.355,2.561,52.662c0.466-0.45,0.899-0.857,1.285-1.212 c0.447,0.391,0.97,0.708,1.557,0.923c0.194,0.071,0.397,0.137,0.593,0.207l-3.134,0.378c-0.106-0.097-0.197-0.2-0.302-0.297 c-6.371,6.15-19.482,21.043-19.482,39.477l0.987,52.249c0.107,7.215-1.094,14.39-3.576,21.165 c-10.375,28.31-8.422,73.875-8.422,93.637h1.754c0.005,2.601-0.015,5.49-0.082,8.487c0,0.001,0,0.003,0,0.004 c0-0.001,0-0.003,0.001-0.004c-0.737,5.517-1.701,9.611-1.821,14.849H5.194c-0.276,0-0.5,0.224-0.5,0.5s0.224,0.5,0.5,0.5h0.094 c-0.002,1.146,0.033,2.346,0.124,3.635h29.024c-0.056-1.615-0.437-2.949-1.019-4.109c0-0.009,0.005-0.017,0.005-0.026 c0-0.179-0.099-0.329-0.24-0.417c-2.921-5.142-9.915-6.782-9.964-14.684c-0.105-0.632-0.288-1.144-0.533-1.557 c0.118,0.199,0.223,0.422,0.31,0.67c0.049-2.462,0.235-5.204,0.48-7.848h1.991l21.757-94.043l2.61-17.845 c0.011,0.108,0.017,0.215,0.028,0.323l-1.28,9.696c-0.043,0.326,0.187,0.626,0.513,0.669c0.026,0.004,0.053,0.005,0.079,0.005 c0.294,0,0.55-0.218,0.59-0.518l8.374-63.441l-7.975,60.422c-0.057,3.775-0.485,7.492-1.296,11.095 c-6.378,28.31-0.212,73.875,2.578,93.637h1.028c0.057,3.526-0.163,6.968-0.863,10.026c0,0,0,0.001,0,0.001 c-0.005,0.012-2.088,5.439-1.941,13.31c-0.274,0.002-0.496,0.224-0.496,0.499c0,0.276,0.224,0.5,0.5,0.5h0.02 c0.05,1.168,0.148,2.383,0.312,3.639l49.053-0.005c0,0,0.387-1.725-0.546-3.694c0.162-0.083,0.276-0.246,0.276-0.441 c0-0.276-0.224-0.5-0.5-0.5h-0.327c-0.815-1.175-2.165-2.353-4.419-3.239c-6.036-2.371-13.764-4.205-22.504-13.681 c-7.429,7.655-18.3,4.013-19.339,3.642c1.036,0.371,11.851,3.99,19.277-3.582c-0.137-1.938-0.173-4.152-0.15-6.476h0.636 l8.624-94.042l-2.017-81.706v-27.487c0.652-0.229,1.237-0.595,1.73-1.065c3.101,1.577,6.97,1.286,9.833-1.061l35.501-29.094 l-9.721,7.967V184.855z M22.048,392.916c-0.086-0.071-0.168-0.147-0.261-0.206C21.88,392.77,21.962,392.846,22.048,392.916z M21.516,392.572c-0.096-0.047-0.191-0.097-0.293-0.134C21.325,392.475,21.42,392.525,21.516,392.572z M20.919,392.354 c-0.106-0.027-0.212-0.055-0.323-0.072C20.707,392.299,20.813,392.327,20.919,392.354z M20.265,392.248 c-0.115-0.009-0.231-0.017-0.351-0.018C20.034,392.231,20.149,392.239,20.265,392.248z M19.563,392.242 c-0.124,0.007-0.248,0.017-0.375,0.032C19.315,392.259,19.439,392.25,19.563,392.242z M18.822,392.327 c-0.131,0.022-0.262,0.047-0.395,0.075C18.56,392.373,18.691,392.349,18.822,392.327z M18.05,392.49 c-0.136,0.035-0.273,0.073-0.411,0.114C17.777,392.564,17.914,392.525,18.05,392.49z M17.259,392.722 c-0.141,0.047-0.283,0.097-0.425,0.149C16.976,392.819,17.118,392.769,17.259,392.722z M16.458,393.011 c-0.146,0.057-0.292,0.119-0.438,0.18C16.166,393.13,16.312,393.069,16.458,393.011z M15.654,393.348 c-0.149,0.067-0.298,0.137-0.446,0.208C15.356,393.485,15.504,393.415,15.654,393.348z M14.86,393.721 c-0.156,0.077-0.31,0.157-0.464,0.237C14.55,393.878,14.704,393.799,14.86,393.721z M14.084,394.12 c-0.173,0.093-0.342,0.187-0.51,0.282C13.742,394.308,13.91,394.213,14.084,394.12z M13.336,394.534 c-0.244,0.14-0.483,0.281-0.714,0.421C12.852,394.815,13.091,394.674,13.336,394.534z M22.277,393.11 c0.085,0.088,0.157,0.198,0.233,0.301C22.434,393.307,22.362,393.198,22.277,393.11z M120.469,108.997 c-0.497,0.004-0.968,0.098-1.421,0.234c-0.005-0.205-0.009-0.41-0.012-0.611l0.204,0.062c0.346-0.478,0.674-0.968,1.007-1.454 C120.318,107.804,120.39,108.393,120.469,108.997z M85.303,124.446c-0.067-0.068-0.133-0.137-0.2-0.204 C85.171,124.309,85.236,124.378,85.303,124.446z M50.439,182.87c-0.085-0.017-0.171-0.032-0.256-0.049 C50.267,182.838,50.354,182.853,50.439,182.87z M48.066,182.368c-0.055-0.012-0.11-0.024-0.165-0.036 C47.956,182.344,48.011,182.356,48.066,182.368z M45.754,181.808c-0.025-0.006-0.051-0.012-0.075-0.019 C45.704,181.795,45.729,181.801,45.754,181.808z M52.885,183.311c-0.124-0.021-0.25-0.038-0.373-0.059 C52.636,183.272,52.761,183.29,52.885,183.311z M63.145,184.34c-0.306-0.011-0.612-0.016-0.917-0.03 C62.533,184.324,62.839,184.33,63.145,184.34z M60.536,184.205c-0.262-0.018-0.526-0.031-0.788-0.052 C60.011,184.173,60.274,184.186,60.536,184.205z M57.949,183.985c-0.216-0.022-0.434-0.04-0.649-0.063 C57.516,183.945,57.733,183.963,57.949,183.985z M55.389,183.684c-0.167-0.022-0.336-0.041-0.502-0.065 C55.054,183.643,55.222,183.662,55.389,183.684z M64.725,184.388c0.353,0.005,0.708-0.001,1.061-0.001 C65.433,184.387,65.079,184.393,64.725,184.388z M86.318,125.545c0.058,0.067,0.117,0.132,0.174,0.199 C86.435,125.677,86.376,125.612,86.318,125.545z M87.577,127.117c0.271,0.168,0.541,0.34,0.802,0.534 C88.117,127.457,87.848,127.286,87.577,127.117L87.577,127.117z M59.076,42.453c12.352-3.06,24.821,2.484,31.09,12.821 c-0.27,0.052-0.536,0.095-0.808,0.154c-15.997,2.912-25.262,2.413-28.459,20.688c-1.829,10.453-1.333,15.689-3.52,20.935 c-9.108-2.88-16.548-10.288-19.012-20.234C34.599,61.607,43.876,46.218,59.076,42.453z M35.674,173.962 c-0.063,0.272-0.094,0.543-0.109,0.813C35.58,174.505,35.611,174.234,35.674,173.962z M35.56,175.013 c-0.001,0.197,0.009,0.393,0.031,0.587C35.569,175.406,35.559,175.211,35.56,175.013z M35.799,176.588 c-0.082-0.244-0.138-0.497-0.18-0.754C35.661,176.091,35.718,176.344,35.799,176.588z M35.824,176.648 c0.078,0.224,0.176,0.44,0.285,0.65C35.999,177.089,35.902,176.873,35.824,176.648z M36.699,178.18 c0.162,0.194,0.336,0.379,0.528,0.547C37.034,178.56,36.861,178.374,36.699,178.18z M36.239,177.524 c0.092,0.155,0.192,0.304,0.3,0.448C36.43,177.828,36.33,177.679,36.239,177.524z M43.541,181.201 c-0.01-0.003-0.02-0.005-0.03-0.008C43.521,181.196,43.531,181.198,43.541,181.201z M69.761,184.29 c0.453-0.025,0.906-0.065,1.359-0.099C70.667,184.225,70.214,184.265,69.761,184.29z M67.24,184.383 c0.401-0.008,0.802-0.029,1.204-0.043C68.042,184.354,67.641,184.375,67.24,184.383z M74.8,183.823 c0.837-0.111,1.672-0.238,2.503-0.383C76.471,183.585,75.637,183.712,74.8,183.823z M72.284,184.104 c0.535-0.049,1.068-0.116,1.601-0.179C73.352,183.988,72.819,184.055,72.284,184.104z M87.776,159.629 c0.252-0.874,0.502-1.749,0.743-2.623l1.512,1.121L87.776,159.629z M115.298,141.297c0.035-0.25,0.072-0.5,0.113-0.749v0.674 l2.646-1.762L115.298,141.297z" fill="inherit"/></g><g id="change1_1"><path d="M47.099,18.446l-8.036-8.637c-3.456,1.539-6.737,3.336-9.807,5.394l3.034,11.432 c-3.118,2.406-5.932,5.139-8.438,8.121l-11.284-3.459c-2.193,3.027-4.128,6.236-5.781,9.588l8.329,8.375 c-1.48,3.6-2.573,7.361-3.245,11.242L0.345,63.156c-0.387,3.676-0.445,7.416-0.192,11.191l11.39,3.074 c0.265,1.926,0.627,3.839,1.104,5.768c0.475,1.918,1.048,3.779,1.713,5.606l-8.638,8.036c1.539,3.456,3.336,6.736,5.394,9.807 l11.432-3.033c2.406,3.118,5.129,5.935,8.121,8.438l-3.459,11.284c3.027,2.193,6.236,4.127,9.588,5.781l8.364-8.326 c3.611,1.477,7.372,2.571,11.253,3.242l2.654,11.526c3.676,0.387,7.416,0.445,11.191,0.192l3.074-11.39 c1.926-0.265,3.839-0.627,5.757-1.102c1.929-0.478,3.79-1.051,5.616-1.716l8.036,8.637c3.456-1.539,6.737-3.336,9.807-5.394 l-3.033-11.432c3.118-2.406,5.934-5.129,8.427-8.118l11.295,3.456c2.193-3.027,4.127-6.236,5.781-9.588l-8.326-8.364 c1.467-3.608,2.57-7.372,3.242-11.253l11.526-2.654c0.387-3.676,0.445-7.416,0.192-11.191l-11.39-3.074 c-0.265-1.926-0.627-3.839-1.102-5.757c-0.478-1.929-1.051-3.79-1.716-5.616l8.638-8.036c-1.539-3.456-3.336-6.737-5.394-9.807 l-11.432,3.033c-2.406-3.118-5.139-5.932-8.118-8.427l3.456-11.295c-3.027-2.193-6.236-4.127-9.588-5.781l-8.375,8.329 c-3.597-1.469-7.361-2.573-11.242-3.245L72.737,4.431c-3.676-0.387-7.416-0.445-11.191-0.192l-3.074,11.39 c-1.926,0.265-3.839,0.627-5.768,1.105C50.786,17.208,48.925,17.781,47.099,18.446z M59.076,42.453 c15.21-3.768,30.599,5.509,34.367,20.72c3.765,15.2-5.512,30.588-20.722,34.357c-15.2,3.765-30.588-5.512-34.354-20.712 C34.599,61.607,43.876,46.218,59.076,42.453z M304.421,9.656l-5.403-5.808c-2.324,1.035-4.53,2.243-6.594,3.627l2.04,7.687 c-2.097,1.618-3.989,3.456-5.674,5.461l-7.587-2.326c-1.474,2.035-2.775,4.193-3.887,6.447l5.6,5.631 c-0.995,2.421-1.73,4.95-2.182,7.56l-7.75,1.785c-0.26,2.472-0.299,4.987-0.129,7.525l7.659,2.067 c0.178,1.295,0.421,2.581,0.743,3.878c0.32,1.29,0.705,2.541,1.152,3.769l-5.808,5.404c1.035,2.324,2.243,4.53,3.627,6.594 l7.687-2.04c1.618,2.097,3.449,3.991,5.461,5.674l-2.326,7.588c2.035,1.474,4.193,2.775,6.447,3.887l5.624-5.599 c2.428,0.993,4.957,1.728,7.567,2.18l1.785,7.75c2.472,0.26,4.987,0.299,7.525,0.129l2.067-7.659 c1.295-0.178,2.581-0.421,3.871-0.741c1.297-0.321,2.548-0.706,3.777-1.154l5.403,5.808c2.324-1.035,4.53-2.243,6.594-3.627 l-2.04-7.687c2.097-1.618,3.99-3.449,5.667-5.459l7.595,2.324c1.474-2.035,2.775-4.193,3.887-6.447l-5.599-5.624 c0.986-2.426,1.728-4.957,2.18-7.567l7.75-1.785c0.26-2.472,0.299-4.987,0.129-7.525l-7.659-2.067 c-0.178-1.295-0.421-2.581-0.741-3.871c-0.321-1.297-0.707-2.548-1.154-3.777l5.808-5.404c-1.035-2.324-2.243-4.53-3.627-6.594 l-7.687,2.04c-1.618-2.097-3.456-3.989-5.459-5.667l2.324-7.595c-2.035-1.474-4.193-2.775-6.447-3.887l-5.631,5.6 c-2.419-0.988-4.95-1.73-7.56-2.182l-1.785-7.75c-2.472-0.26-4.987-0.299-7.525-0.129l-2.067,7.659 c-1.295,0.178-2.581,0.421-3.878,0.743C306.901,8.824,305.65,9.209,304.421,9.656z M312.475,25.799 c10.228-2.534,20.575,3.705,23.109,13.932c2.532,10.221-3.706,20.568-13.934,23.102c-10.221,2.532-20.568-3.706-23.1-13.927 C296.016,38.678,302.254,28.331,312.475,25.799z M181.431,273.877l-9.199-7.909c-3.356,1.967-6.503,4.178-9.406,6.633l4.406,11.336 c-2.912,2.815-5.475,5.93-7.695,9.263l-11.926-2.245c-1.895,3.344-3.506,6.844-4.812,10.458l9.468,7.607 c-1.101,3.848-1.789,7.817-2.032,11.859l-11.475,4.029c0.025,3.801,0.392,7.629,1.082,11.458l11.991,1.84 c0.49,1.938,1.079,3.851,1.788,5.768c0.705,1.906,1.503,3.742,2.391,5.533l-7.909,9.199c1.967,3.356,4.179,6.503,6.633,9.405 l11.336-4.406c2.815,2.912,5.919,5.479,9.263,7.695l-2.245,11.926c3.343,1.895,6.844,3.505,10.458,4.812l7.596-9.464 c3.859,1.097,7.827,1.785,11.87,2.028l4.029,11.475c3.801-0.024,7.629-0.392,11.458-1.082l1.84-11.991 c1.938-0.49,3.851-1.079,5.758-1.784c1.917-0.709,3.753-1.507,5.543-2.395l9.199,7.909c3.356-1.967,6.503-4.178,9.405-6.633 l-4.406-11.336c2.912-2.815,5.478-5.919,7.684-9.259l11.937,2.241c1.895-3.344,3.505-6.844,4.812-10.458l-9.464-7.596 c1.087-3.855,1.784-7.827,2.028-11.87l11.475-4.029c-0.024-3.801-0.392-7.629-1.082-11.458l-11.991-1.84 c-0.49-1.938-1.079-3.851-1.784-5.758c-0.709-1.917-1.507-3.753-2.395-5.543l7.909-9.199c-1.967-3.356-4.179-6.503-6.633-9.405 L247,285.098c-2.815-2.912-5.929-5.475-9.258-7.684l2.241-11.937c-3.344-1.895-6.844-3.505-10.459-4.812l-7.607,9.468 c-3.844-1.091-7.817-1.788-11.859-2.032l-4.029-11.475c-3.801,0.024-7.629,0.392-11.458,1.082l-1.84,11.991 c-1.938,0.49-3.851,1.079-5.768,1.788C185.058,272.191,183.221,272.989,181.431,273.877z M196.413,297.041 c15.113-5.588,31.898,2.134,37.487,17.247c5.584,15.103-2.138,31.888-17.251,37.477c-15.103,5.584-31.888-2.138-37.473-17.241 C173.588,319.411,181.31,302.626,196.413,297.041z M49.174,285.273c-0.026,0-0.053-0.001-0.079-0.005 c-0.326-0.043-0.556-0.343-0.513-0.669l8.401-63.65c0.018-0.135,0.081-0.26,0.181-0.354l8.822-8.382 c0.237-0.229,0.614-0.22,0.842,0.021c0.228,0.238,0.218,0.615-0.021,0.842l-8.669,8.237l-8.374,63.441 C49.723,285.055,49.468,285.273,49.174,285.273z M364.625,239.913c-0.013,0-0.025,0-0.038-0.001l-9.196-0.58 c-0.329-0.021-0.578-0.304-0.558-0.632c0.021-0.329,0.296-0.596,0.632-0.558l9.196,0.58c0.329,0.021,0.578,0.304,0.558,0.632 C365.199,239.671,364.936,239.913,364.625,239.913z M336.436,229.487c-1.157,3.091-3.753,7.562-9.088,7.562 c-0.329,0-0.596-0.267-0.596-0.596s0.267-0.596,0.596-0.596c4.499,0,6.793-3.752,7.877-6.527 C335.628,229.383,336.031,229.437,336.436,229.487z M396.839,236.453c0,0.329-0.267,0.596-0.596,0.596 c-5.256,0-7.852-4.335-9.035-7.42c0.406-0.05,0.805-0.109,1.209-0.161c1.106,2.759,3.401,6.39,7.825,6.39 C396.572,235.857,396.839,236.124,396.839,236.453z" fill="#EAEAEA"/></g><g id="change2_2"><path clip-rule="evenodd" d="M7.122,394.955c0,0,2.087,2.072,5.5,0 c3.808-2.311,9.745-4.886,10.597,0.248c0.061,9.838,10.894,9.965,11.218,19.236H5.413C4.867,406.704,6.182,401.99,7.122,394.955 M51.609,396.494c0,0-2.954,7.635-1.606,17.949l49.054-0.005c0,0,1.198-5.235-5.517-7.873c-6.036-2.371-13.764-4.205-22.504-13.681 C63.229,400.93,51.609,396.494,51.609,396.494 M114.405,146.69L88.84,128.011c-0.14-0.114-0.316-0.252-0.462-0.361 c-0.261-0.193-0.531-0.365-0.802-0.534c-4.374-6.044-11.689-9.944-19.797-9.944c-11.312,0-21.075,7.932-23.392,19.004 l-8.714,37.785c-0.556,2.411,0.788,4.837,3.111,5.69c10.689,3.923,25.105,6.128,38.517,3.789c1.721-0.3,3.14-1.51,3.731-3.154 c1.601-4.456,4.919-13.979,7.485-23.281l6.979,5.172L114.405,146.69z M293.891,285.955c-7.235,0-13.1-5.865-13.1-13.1 c0-7.235,5.865-13.1,13.1-13.1c1.774,0,3.459,0.367,5.001,1.007v-23.094c0-2.847-2.308-5.155-5.155-5.155h-24.733 c0.985-1.839,1.547-3.94,1.547-6.172c0-7.235-5.865-13.1-13.1-13.1c-7.235,0-13.1,5.865-13.1,13.1c0,2.232,0.562,4.333,1.547,6.172 h-23.726c-2.847,0-5.155,2.308-5.155,5.155v71.567c0,2.847,2.308,5.155,5.155,5.155h71.567c2.847,0,5.155-2.308,5.155-5.155 v-24.286C297.35,285.588,295.666,285.955,293.891,285.955z M416.69,195.162c-1.897-18.78-2.481-40.991-2.814-45.385 c-0.448-5.185-0.882-10.37-1.529-15.542c-0.609-4.873-3.719-8.812-7.875-10.724c0.006-0.037,0.009-0.062,0.009-0.062 c-9.63-4.158-19.041-6.91-28.367-8.25l0.155,2.06c0.449,6.46-4.192,12.176-11.065,12.641c-6.872,0.465-12.808-4.396-13.258-10.856 l0.037-4.124c-9.036,1.104-18.102,3.571-27.322,7.42c-0.015,0.006-0.028,0.015-0.043,0.021c-3.255,1.129-6.063,3.52-7.62,6.909 l-18.967,33.328l20.396,28.582l8.174-18.453c0.559,6.937,0.927,12.847,0.927,16.19c0,10.19-1.546,28.14-1.546,35.598 c0,1.983,1.445,3.659,3.402,3.976c21.062,3.409,44.951,3.51,65.46,0.027c1.944-0.33,3.373-2.001,3.373-3.972 c0-5.32-0.791-16.035-1.241-25.44L416.69,195.162z M112.75,84.951c-2.209,0-4.134,1.506-5.116,3.716 c-0.888-0.41-1.802-0.397-2.688,0.039c-0.977-2.231-2.909-3.754-5.131-3.754c-3.203,0-5.809,3.165-5.809,7.055 c0,3.891,2.605,7.056,5.809,7.056s5.81-3.165,5.81-7.056c0-0.812-0.119-1.589-0.328-2.316c0.671-0.368,1.316-0.38,1.985-0.041 c-0.217,0.739-0.341,1.53-0.341,2.357c0,3.891,2.606,7.056,5.811,7.056c3.203,0,5.809-3.165,5.809-7.056 C118.558,88.116,115.953,84.951,112.75,84.951z M99.814,98.042c-2.641,0-4.789-2.708-4.789-6.036s2.148-6.035,4.789-6.035 c2.642,0,4.79,2.707,4.79,6.035S102.456,98.042,99.814,98.042z M112.75,98.042c-2.642,0-4.791-2.708-4.791-6.036 s2.149-6.035,4.791-6.035c2.641,0,4.789,2.707,4.789,6.035S115.39,98.042,112.75,98.042z" fill="#5FA9E0" fill-rule="evenodd"/></g><g id="change3_1"><path clip-rule="evenodd" d="M147.744,105.196l-1.89,3.407 c-0.741,3.482-1.697,7.394-2.472,10.932c-0.901,4.116-4.819,6.048-10.198,5.244c-6.122-0.914-7.685-3.744-7.69-3.75 c-5.526-6.313-4.679-12.414-5.771-17.02c-0.478-2.015-0.609-2.51,0.354-2.896c1.071-0.429,3.557,0.445,5.404,4.38 c0.554,1.181,1.125,2.283,1.585,3.14c0.579-4.192,1.036-6.876,1.036-6.876l0.284,0.025c0.343-0.598,0.916-1.051,1.654-1.187 c1.215-0.224,2.352,0.485,2.754,1.578l1.604,0.143c0.009-0.132,0.017-0.251,0.026-0.341c0.137-1.392,1.29-2.46,2.683-2.339 c1.336,0.116,2.299,1.264,2.25,2.552c0.474-1.107,1.628-1.779,2.833-1.485c1.061,0.26,1.771,1.166,1.853,2.177 c0.558-0.665,1.443-0.99,2.327-0.722C147.653,102.546,148.302,103.976,147.744,105.196z M386.913,390.221h-16.551 c-0.008,0.316-0.024,0.619-0.024,0.947c0,5.765-0.337,10.175-0.618,16.318c1.445,0.572,3.333,0.494,5.41-1.724 c4.174-4.456,8.667-6.573,13.137-5.086C386.995,397.215,386.788,393.725,386.913,390.221z M7.122,394.955c0,0,2.087,2.072,5.5,0 c3.566-2.164,8.997-4.557,10.373-0.639c0.049-2.462,0.235-5.204,0.48-7.848H7.203C7.208,389.07,7.188,391.958,7.122,394.955 c-0.001,0.001-0.001,0.003-0.001,0.004C7.122,394.958,7.122,394.956,7.122,394.955z M51.609,396.494c0,0,11.559,4.41,19.365-3.55 c-0.137-1.938-0.173-4.152-0.15-6.476H52.472C52.529,389.994,52.309,393.436,51.609,396.494c0,0,0,0.001,0,0.001L51.609,396.494z M151.704,135.958c-3.216,0-3.113,0.061-13.19,0.017l0,0c0,0-0.188-0.002-0.51-0.002c-0.357-0.002-0.725-0.003-1.107-0.005 l0.01,0.016c-3.03,0.052-9.802,0.338-15.576,1.794c-1.077,0.271-2.062,0.781-2.896,1.458c-0.126,0.074-0.254,0.143-0.378,0.225 l-30.932,20.603l-4.993-8.572l-16.74,10.769l10.554,16.204l0.384,0.592c0.177,0.27,0.37,0.533,0.578,0.788 c3.165,3.862,8.862,4.427,12.724,1.262l35.501-29.094c2.221,0.283,5.078,0.526,7.908,0.48l2.01,1.588 c0.406,0.322,0.925,0.468,1.439,0.407l3.456-0.409c0.643-0.076,1.193-0.493,1.439-1.092l2.823-6.812 c0.501-1.209,0.187-2.603-0.785-3.48l-2.074-1.872c2.293-0.264,7.089-0.836,9.262-1.247 C153.118,139.1,154.707,135.958,151.704,135.958z M298.934,163.861l-0.906,0.913l-18.537-24.056h-49.936 c-0.078,0.944,0.58,1.815,2.07,2.037c0.499,0.074,1.121,0.145,1.827,0.212c-0.525,1.055-0.14,2.162,1.394,2.337 c0.665,0.077,1.665,0.185,2.849,0.311c0.287,0.397,0.725,0.733,1.339,0.918c2.704,0.815,7.88,1.961,9.87,2.394 c0.534,0.115,1.071,0.194,1.616,0.238c0,0,10.401,0.868,11.96,0.948l0.033,0.003v-0.001c0.357,0.018,0.72,0.026,1.085,0.032 l22.146,40.076c3.761,6.179,11.818,8.14,17.998,4.38c1.058-0.644,5.502-5.194,10.025-9.955L298.934,163.861z M421.564,256.182 c0-0.01,0.005-0.021,0.005-0.031c-0.03-0.738-0.209-2.688-0.452-5.123l-0.001-0.002c-0.641-6.417-1.729-16.215-1.729-16.219 c0,0,0,0,0,0l-4.391-39.305l-18.018,3.604c0.165,3.438,0.375,7.05,0.575,10.511c3.024,10.808,6.584,23.494,7.689,27.431 c-0.205,0.289-0.388,0.576-0.54,0.857c-2.013,3.715-2.342,6.168-1.686,11.724c-0.183-0.078-0.377-0.135-0.582-0.16 c-1.334-0.162-2.495,0.908-2.44,2.25l0.284,7.008c0.026,0.652,0.343,1.257,0.863,1.65l5.538,4.187c0,0,0-0.001,0-0.001l1.44,1.089 c0.776,0.587,1.849,0.588,2.626,0.001l9.967-7.522c0.571-0.43,0.894-1.113,0.865-1.827L421.564,256.182z M338.154,405.25 c0,0.002,0.001,0.004,0.001,0.006c-0.024-4.61,0.621-10.791,1.147-15.035h-17.664c-0.393,4.932-1.114,8.259-2.213,11.035 C325.458,409.216,333.583,407.584,338.154,405.25z M378.811,86.335c-1.141-0.096-1.958,2.376-2.488,4.848 c-0.233-0.138-0.501-0.225-0.798-0.231v0.001c0,0-1.145-9.002,1.065-18.154c-1.946,1.923-9.058,2.557-14.2,1.286 c-6.281-1.553-9.93-3.743-14.067-3.247c-2.578,7.997-2.664,15.708-2.664,15.708l0.184,10.748c0.083,4.864,2.495,9.253,6.191,11.926 l-0.088,9.824c0.45,6.46,6.386,11.321,13.258,10.856c6.873-0.465,11.514-6.18,11.065-12.641l-1.337-17.732l0.794-2.417 c0.339,0.83,1.138,1.348,2.002,1.129c2.586-0.656,4.428-2.769,4.652-5.41C382.669,89.434,381.071,86.527,378.811,86.335z M112.75,99.061c-3.204,0-5.811-3.165-5.811-7.056c0-0.828,0.124-1.619,0.341-2.357c-0.669-0.339-1.313-0.327-1.985,0.041 c0.209,0.727,0.328,1.504,0.328,2.316c0,3.891-2.606,7.056-5.81,7.056s-5.809-3.165-5.809-7.056c0-3.89,2.605-7.055,5.809-7.055 c2.221,0,4.154,1.524,5.131,3.754c0.886-0.436,1.801-0.449,2.688-0.039c0.982-2.21,2.907-3.716,5.116-3.716 c0.589,0,1.157,0.109,1.693,0.308c0.015-1.909-0.323-3.757-0.953-5.477c-0.579-0.047-1.158-0.104-1.74-0.187 c-5.426-0.77-14.006-3.619-19.721-7.069c-3.426,5.671,1.241,17.073-6.186,19.491c0.223-2.64-0.087-5.771-2.642-6.398 c-2.897-0.711-4.68,1.417-5.482,4.629c-0.624,2.5,0.96,5.158,3.971,6.784c1.029,0.555,2.243,0.384,2.945-0.276l-8.866,21.732 c4.796,1.621,8.928,4.661,11.799,8.623c0.274,0.17,0.547,0.344,0.811,0.54c0.146,0.109,0.321,0.246,0.462,0.361l2.365,1.943 l6.204-15.666c1.52,0.25,3.107,0.243,4.705-0.091c5.489-1.146,9.421-5.661,10.111-10.921l0.546-4.217 C112.764,99.06,112.757,99.061,112.75,99.061z M112.75,85.97c-2.642,0-4.791,2.707-4.791,6.035s2.149,6.036,4.791,6.036 c0.052,0,0.103-0.008,0.155-0.01l1.411-10.9c0.034-0.264,0.057-0.526,0.077-0.788C113.88,86.107,113.328,85.97,112.75,85.97z M99.814,85.97c-2.641,0-4.789,2.707-4.789,6.035s2.148,6.036,4.789,6.036c2.642,0,4.79-2.708,4.79-6.036 S102.456,85.97,99.814,85.97z" fill="#F5C0A2" fill-rule="evenodd"/></g><g fill="#293237" id="change4_1"><path d="M32.923,409.804H5.194c-0.276,0-0.5,0.224-0.5,0.5s0.224,0.5,0.5,0.5h27.729c0.276,0,0.5-0.224,0.5-0.5 S33.199,409.804,32.923,409.804z" fill="inherit"/><path d="M138.719,147.813l3.892,1.89c0.07,0.034,0.146,0.05,0.219,0.05c0.186,0,0.363-0.104,0.45-0.281 c0.12-0.249,0.017-0.548-0.231-0.669l-3.892-1.89c-0.249-0.121-0.548-0.017-0.669,0.231 C138.368,147.393,138.471,147.692,138.719,147.813z" fill="inherit"/><path d="M98.287,409.804H49.672c-0.276,0-0.5,0.224-0.5,0.5s0.224,0.5,0.5,0.5h48.615c0.276,0,0.5-0.224,0.5-0.5 S98.563,409.804,98.287,409.804z" fill="inherit"/><path d="M16.46,219.417l0.987,52.249c0.107,7.215-1.094,14.39-3.576,21.165 c-10.375,28.31-8.422,73.875-8.422,93.637h20.017l21.757-94.043l2.61-17.845c0.011,0.108,0.017,0.215,0.028,0.323l7.122-53.955 c0.018-0.135,0.081-0.26,0.181-0.354l8.822-8.382c0.237-0.229,0.614-0.22,0.842,0.021c0.228,0.238,0.218,0.615-0.021,0.842 l-8.669,8.237l-7.975,60.422c-0.057,3.775-0.485,7.492-1.296,11.095c-6.378,28.31-0.212,73.875,2.578,93.637h20.017l8.624-94.042 l-2.017-81.706v-27.487c-0.248,0.087-0.502,0.162-0.766,0.208c-13.17,2.297-27.298,0.208-37.924-3.582l-3.134,0.378 c-0.106-0.097-0.197-0.2-0.302-0.297C29.572,186.089,16.46,200.983,16.46,219.417z" fill="inherit"/><path d="M83.054,150.924l-11.043-18.958c-0.14-0.239-0.446-0.321-0.684-0.18c-0.238,0.139-0.319,0.444-0.18,0.684 l11.043,18.958c0.093,0.159,0.26,0.248,0.432,0.248c0.086,0,0.173-0.021,0.252-0.068 C83.113,151.468,83.194,151.163,83.054,150.924z" fill="inherit"/><path d="M405.248,237.567c0.048,0,0.098-0.007,0.146-0.021l2.01-0.614c0.264-0.081,0.412-0.36,0.332-0.625 c-0.082-0.263-0.355-0.411-0.625-0.332l-2.01,0.614c-0.264,0.081-0.412,0.36-0.332,0.625 C404.836,237.428,405.034,237.567,405.248,237.567z" fill="inherit"/><path d="M397.342,198.887c0.007,0,0.015,0,0.021,0c0.276-0.013,0.49-0.246,0.479-0.521l-0.764-17.362l5.235-37.874 c0.038-0.273-0.153-0.525-0.427-0.563c-0.271-0.033-0.526,0.153-0.563,0.427l-5.24,37.964l0.759,17.452 C396.853,198.677,397.075,198.887,397.342,198.887z" fill="inherit"/><path d="M348.323,70.837c4.137-0.495,7.786,1.694,14.067,3.247c5.143,1.272,12.255,0.637,14.2-1.286 c-2.21,9.153-1.065,18.154-1.065,18.154v-0.001c0.297,0.005,0.565,0.093,0.798,0.231c0.53-2.472,1.347-4.944,2.488-4.848 c2.26,0.192,3.859,3.099,3.571,6.494c-0.224,2.641-2.067,4.754-4.652,5.41c-0.864,0.219-1.664-0.299-2.002-1.129l-0.794,2.417 l0.038,0.498c2.644-0.464,13.059-2.903,11.879-12.366c0,0,8.201-9.414,0.061-16.747c0.092-8.509-4.497-12.641-13.048-13.054 c0,0-19.327-1.645-23.625-1.906c-6.121-0.381-6.371,4.917-4.555,12.081c0.104,0.412,0.261,0.764,0.439,1.092 c-1.097,2.172-1.812,4.581-2.023,7.155c-0.276,3.353,0.317,6.576,1.59,9.449C345.786,83.549,346.243,77.289,348.323,70.837z" fill="inherit"/><path d="M326.774,176.504c0.016,0,0.031-0.001,0.048-0.002c0.274-0.025,0.477-0.27,0.451-0.545l-3.032-32.516 c-0.026-0.275-0.251-0.468-0.545-0.451c-0.274,0.025-0.477,0.27-0.451,0.545l3.032,32.516 C326.302,176.309,326.519,176.504,326.774,176.504z" fill="inherit"/><path d="M327.347,235.857c4.499,0,6.793-3.752,7.877-6.527c-1.964-0.256-3.916-0.53-5.838-0.841 c-0.691-0.112-1.313-0.4-1.835-0.805l-0.301,8.193C327.283,235.871,327.313,235.857,327.347,235.857z" fill="inherit"/><path d="M139.53,144.532l4.134,2.499c0.081,0.049,0.17,0.072,0.259,0.072c0.169,0,0.334-0.086,0.428-0.241 c0.143-0.236,0.067-0.544-0.169-0.687l-4.134-2.499c-0.234-0.141-0.543-0.067-0.687,0.169 C139.219,144.082,139.294,144.389,139.53,144.532z" fill="inherit"/><path d="M290.888,422.127c-0.143,1.074,0.699,2.028,1.784,2.028h45.272c0.94,0,1.722-0.722,1.79-1.659 c0.057-0.767,0.112-1.773,0.139-2.935h-37.221l-3.102-4.844c-1.086,0.527-2.125,1.007-3.088,1.424 C292.229,417.975,291.16,420.09,290.888,422.127z" fill="inherit"/><path d="M319.425,401.255c-3.518,4.395-12.732,9.993-19.875,13.462l3.102,4.844h37.221 c0.091-3.83-0.131-9.424-1.72-14.311C333.583,407.584,325.458,409.216,319.425,401.255z" fill="inherit"/><path d="M395.831,349.38c2.136-16.025-1.028-39.577-1.028-39.577l1.428-72.755 c-5.248-0.006-7.842-4.337-9.023-7.419c0.406-0.05,0.805-0.109,1.209-0.161c1.106,2.759,3.401,6.39,7.825,6.39 c0.004,0,0.008,0.002,0.012,0.002l0.156-7.977c-0.463,0.308-0.987,0.536-1.565,0.634c-18.303,3.109-39.295,3.354-58.572,0.949 c0.054,0.007,0.107,0.014,0.161,0.021c-1.157,3.091-3.753,7.562-9.088,7.562c-0.05,0-0.094-0.017-0.139-0.028l-2.646,72.004 l-3.459,81.196h20.233c4.404-14.616,14.63-50.658,9.639-76.551l10.91-73.929l-6.494-0.41c-0.329-0.021-0.578-0.304-0.558-0.632 c0.021-0.329,0.296-0.596,0.632-0.558l9.196,0.58c0.329,0.021,0.578,0.304,0.558,0.632c-0.019,0.311-0.273,0.547-0.577,0.555 l4.59,150.311h20.192C391.114,380.156,394.302,360.844,395.831,349.38z" fill="inherit"/><path d="M413.727,245.007c-0.26-0.017-0.517,0.18-0.541,0.455l-0.558,6.467l-3.615,12.151 c-0.082,0.276-0.296,0.494-0.572,0.583c-0.269,0.084-0.541,0.037-0.755-0.131c-0.812-0.635-1.279-1.682-1.391-3.11 c-0.309-3.968-0.109-8.684-0.106-8.731c0.009-0.204-0.11-0.395-0.298-0.479c-0.063-0.029-1.577-0.731-2.212-2.901 c-0.077-0.264-0.351-0.417-0.62-0.339c-0.265,0.077-0.417,0.354-0.339,0.62c0.594,2.03,1.866,3.009,2.457,3.368 c-0.038,1.129-0.146,5.105,0.122,8.54c0.134,1.72,0.729,3.005,1.771,3.819c0.321,0.252,0.715,0.384,1.115,0.384 c0.187,0,0.376-0.029,0.56-0.088c0.592-0.188,1.051-0.656,1.228-1.25l3.63-12.2c0.01-0.032,0.016-0.065,0.019-0.1l0.562-6.518 C414.206,245.272,414.003,245.03,413.727,245.007z" fill="inherit"/><path d="M398.177,412.411c0.001,0,0.003,0.001,0.005,0.001c-0.107-0.098-0.218-0.194-0.326-0.291 c-0.902-0.813-1.826-1.62-2.742-2.442c-0.213-0.191-0.425-0.385-0.636-0.579c-0.225-0.207-0.448-0.416-0.671-0.626 c-0.226-0.214-0.447-0.432-0.667-0.651c-0.201-0.199-0.401-0.4-0.596-0.603c-0.225-0.234-0.442-0.476-0.658-0.717 c-0.179-0.199-0.359-0.398-0.531-0.603c-0.22-0.263-0.427-0.536-0.635-0.809c-0.151-0.197-0.306-0.391-0.449-0.594 c-0.22-0.313-0.42-0.642-0.62-0.97c-0.11-0.179-0.229-0.351-0.332-0.535c-0.287-0.514-0.549-1.046-0.779-1.602 c-0.003-0.008-0.008-0.015-0.011-0.023c-0.095-0.229-0.172-0.461-0.257-0.692c-1.114-0.37-2.229-0.516-3.341-0.459 c-0.561,0.029-1.122,0.109-1.68,0.24c-2.775,0.649-5.508,2.519-8.116,5.305c-1.585,1.692-3.059,2.135-4.31,1.997 c-0.389-0.043-0.758-0.138-1.1-0.274c-0.021,0.46-0.041,0.932-0.061,1.414c-0.007,0.179-0.015,0.366-0.022,0.548 c-0.011,0.272-0.022,0.544-0.032,0.824c-0.011,0.297-0.022,0.602-0.033,0.908c-0.006,0.176-0.012,0.352-0.018,0.531 c-0.012,0.365-0.024,0.737-0.036,1.115c-0.003,0.107-0.006,0.217-0.01,0.325c-0.078,2.676-0.135,5.683-0.15,9.195 c-0.005,0.995,0.8,1.809,1.795,1.809h31.524c1.097,0,1.957-0.981,1.779-2.064C403.792,418.009,401.169,415.138,398.177,412.411z" fill="inherit"/><path d="M53.154,146.6c-0.231,0.15-0.297,0.46-0.146,0.691l10.528,16.165c0.096,0.147,0.256,0.228,0.419,0.228 c0.094,0,0.188-0.026,0.272-0.081c0.231-0.15,0.297-0.46,0.146-0.691l-10.528-16.165C53.695,146.514,53.384,146.45,53.154,146.6z" fill="inherit"/><path d="M193.01,215.44h-24.733c0.985-1.839,1.546-3.94,1.546-6.172c0-7.235-5.865-13.1-13.1-13.1 s-13.1,5.865-13.1,13.1c0,2.232,0.562,4.333,1.546,6.172h-23.726c-2.847,0-5.155,2.308-5.155,5.155v71.567 c0,2.847,2.308,5.155,5.155,5.155h71.566c2.847,0,5.155-2.308,5.155-5.155v-71.567C198.165,217.748,195.857,215.44,193.01,215.44z" fill="inherit"/><path d="M119.505,116.839c-1.937-20.924,2.514-24.287,3.381-38.64s-13.943-27.005-33.528-22.771 c-15.997,2.912-25.262,2.413-28.459,20.688c-3.197,18.275,0.725,20.605-15.037,34.919c-15.686,14.245-31.312,48.94-9.92,68.905 c0.466-0.45,0.899-0.857,1.285-1.212c-1.323-1.156-1.969-2.964-1.554-4.766l8.714-37.785c2.317-11.072,12.08-19.004,23.392-19.004 c2.837,0,5.572,0.487,8.122,1.366c-0.045-0.016-0.088-0.036-0.134-0.051l8.866-21.732c-0.702,0.66-1.916,0.831-2.945,0.276 c-3.011-1.626-4.595-4.285-3.971-6.784c0.802-3.211,2.585-5.34,5.482-4.629c2.554,0.627,2.865,3.758,2.642,6.398 c7.427-2.418,2.761-13.82,6.186-19.491c5.716,3.449,14.296,6.299,19.721,7.069c0.582,0.083,1.161,0.14,1.74,0.187 c0.834,2.277,1.159,4.778,0.826,7.35l-2.09,16.145c-0.69,5.261-4.622,9.776-10.111,10.921c-1.598,0.333-3.186,0.341-4.705,0.091 l-6.204,15.666l19.014,14.782l5.023-3.07C116.215,133.942,120.41,126.61,119.505,116.839z" fill="inherit"/><path d="M296.448,135.595V64.482c0-2.829-2.293-5.123-5.123-5.123h-22.12c0.963,1.811,1.514,3.875,1.514,6.07 c0,7.154-5.799,12.954-12.954,12.954c-7.154,0-12.954-5.8-12.954-12.954c0-2.194,0.551-4.258,1.514-6.07h-26.113 c-2.829,0-5.122,2.293-5.122,5.123v23.606c1.863-0.737,3.932-1.067,6.108-0.831c6.285,0.682,11.237,5.997,11.46,12.315 c0.259,7.313-5.593,13.323-12.848,13.323c-1.668,0-3.258-0.328-4.72-0.907v23.606c0,2.829,2.293,5.123,5.122,5.123h71.113 C294.155,140.717,296.448,138.424,296.448,135.595z" fill="inherit"/><path d="M270.963,149.746h-6.409c-0.276,0-0.5,0.224-0.5,0.5s0.224,0.5,0.5,0.5h6.409c0.276,0,0.5-0.224,0.5-0.5 S271.239,149.746,270.963,149.746z" fill="inherit"/></g><g id="change5_1"><path d="M202.475,136.021c-2.207,0-4.284,0.555-6.103,1.529v-23.46c0-2.815-2.282-5.098-5.097-5.098h-45.616 c-0.728,1.271-2.34,1.145-2.943,0h-0.831c-0.727,1.723-2.859,1.584-3.466,0h-0.417c-0.549,1.935-3.029,1.951-3.652,0h-1.225 c-0.479,1.611-2.724,1.907-3.624,0h-8.99c-2.816,0-5.098,2.282-5.098,5.098v27.131l2.646-1.762 c0.124-0.082,0.251-0.151,0.378-0.225c0.834-0.677,1.819-1.187,2.896-1.458c5.775-1.456,12.547-1.742,15.576-1.794l-0.01-0.016 c0.382,0.002,0.75,0.004,1.107,0.005c0.322,0,0.51,0.002,0.51,0.002l0,0c10.077,0.044,9.974-0.017,13.19-0.017 c3.003,0,1.414,3.142-1.091,3.618c-2.173,0.411-6.968,0.984-9.262,1.247l2.074,1.872c0.972,0.877,1.286,2.27,0.785,3.48 l-2.823,6.812c-0.246,0.599-0.797,1.016-1.439,1.092l-3.456,0.409c-0.515,0.061-1.033-0.085-1.439-0.407l-2.01-1.588 c-2.831,0.046-5.687-0.196-7.908-0.48l-9.721,7.967v24.875c0,2.815,2.282,5.098,5.098,5.098h22.531 c-0.606-1.507-0.947-3.147-0.947-4.87c0-7.235,5.865-13.1,13.1-13.1s13.1,5.865,13.1,13.1c0,1.723-0.341,3.364-0.947,4.87h23.928 c2.815,0,5.097-2.282,5.097-5.098v-24.456c1.819,0.974,3.896,1.529,6.103,1.529c7.154,0,12.954-5.8,12.954-12.954 C215.428,141.821,209.629,136.021,202.475,136.021z" fill="#E0E0E0"/></g><g id="change2_1"><path d="M112.615,84.805c-2.202,0-4.107,1.569-5.053,3.86c-1.047-0.628-2.075-0.303-2.714,0.123 c-0.948-2.282-2.85-3.843-5.047-3.843c-3.142,0-5.689,3.19-5.689,7.124s2.547,7.124,5.689,7.124c3.142,0,5.689-3.19,5.689-7.124 c0-0.801-0.11-1.568-0.305-2.286c0.144-0.131,1.042-0.868,2.04-0.122c-0.191,0.713-0.299,1.474-0.299,2.268 c0,3.935,2.547,7.124,5.689,7.124c3.142,0,5.689-3.19,5.689-7.124S115.757,84.805,112.615,84.805z M99.801,98.192 c-2.585,0-4.689-2.747-4.689-6.124s2.104-6.124,4.689-6.124c2.586,0,4.689,2.747,4.689,6.124S102.386,98.192,99.801,98.192z M112.615,98.053c-2.585,0-4.689-2.747-4.689-6.124s2.104-6.124,4.689-6.124c2.586,0,4.689,2.747,4.689,6.124 S115.2,98.053,112.615,98.053z" fill="#5FA9E0"/></g></g></svg>